<svg xmlns="http://www.w3.org/2000/svg" xmlns:xlink="http://www.w3.org/1999/xlink" width="500" zoomAndPan="magnify" viewBox="0 0 375 374.999991" height="500" preserveAspectRatio="xMidYMid meet" version="1.0"><defs><g/><clipPath id="id1"><path d="M 52 144 L 125 144 L 125 224 L 52 224 Z M 52 144 " clip-rule="nonzero"/></clipPath><clipPath id="id2"><path d="M 52.816406 144.707031 L 124.066406 144.683594 L 124.089844 223.433594 L 52.839844 223.457031 Z M 52.816406 144.707031 " clip-rule="nonzero"/></clipPath><clipPath id="id3"><path d="M 49.285156 144.707031 L 128.035156 144.683594 L 128.058594 223.433594 L 49.308594 223.457031 Z M 49.285156 144.707031 " clip-rule="nonzero"/></clipPath></defs><g clip-path="url(#id1)"><g clip-path="url(#id2)"><g clip-path="url(#id3)"><path fill="#000000" d="M 49.285156 144.707031 L 128.035156 144.683594 L 128.058594 223.433594 L 49.308594 223.457031 Z M 49.285156 144.707031 " fill-opacity="1" fill-rule="nonzero"/></g></g></g><g fill="#000000" fill-opacity="1"><g transform="translate(126.893682, 201.570968)"><g/></g></g><g fill="#000000" fill-opacity="1"><g transform="translate(142.585087, 201.570968)"><g><path d="M 6.234375 -3.5 C 2.960938 -6.414062 1.328125 -10.15625 1.328125 -14.71875 C 1.328125 -19.28125 3.03125 -23.03125 6.4375 -25.96875 C 9.851562 -28.90625 14.070312 -30.375 19.09375 -30.375 C 24.039062 -30.375 28.207031 -28.894531 31.59375 -25.9375 C 34.988281 -22.988281 36.6875 -19.25 36.6875 -14.71875 C 36.6875 -10.195312 35.03125 -6.46875 31.71875 -3.53125 C 28.40625 -0.601562 24.195312 0.859375 19.09375 0.859375 C 13.800781 0.859375 9.515625 -0.59375 6.234375 -3.5 Z M 14.125 -19.71875 C 12.800781 -18.414062 12.140625 -16.75 12.140625 -14.71875 C 12.140625 -12.6875 12.769531 -11.03125 14.03125 -9.75 C 15.300781 -8.46875 16.96875 -7.828125 19.03125 -7.828125 C 21.03125 -7.828125 22.671875 -8.476562 23.953125 -9.78125 C 25.234375 -11.082031 25.875 -12.726562 25.875 -14.71875 C 25.875 -16.75 25.210938 -18.414062 23.890625 -19.71875 C 22.566406 -21.03125 20.945312 -21.6875 19.03125 -21.6875 C 17.082031 -21.6875 15.445312 -21.03125 14.125 -19.71875 Z M 14.125 -19.71875 "/></g></g></g><g fill="#000000" fill-opacity="1"><g transform="translate(180.595147, 201.570968)"><g><path d="M 5.46875 -3.65625 C 2.707031 -6.664062 1.328125 -10.351562 1.328125 -14.71875 C 1.328125 -19.09375 2.707031 -22.796875 5.46875 -25.828125 C 8.226562 -28.859375 11.734375 -30.375 15.984375 -30.375 C 19.898438 -30.375 23.125 -29.144531 25.65625 -26.6875 L 25.65625 -49.46875 L 35.828125 -49.46875 L 35.828125 0 L 25.765625 0 L 25.765625 -3.328125 L 25.65625 -3.328125 C 23.125 -0.535156 19.898438 0.859375 15.984375 0.859375 C 11.734375 0.859375 8.226562 -0.644531 5.46875 -3.65625 Z M 14.125 -19.71875 C 12.800781 -18.414062 12.140625 -16.75 12.140625 -14.71875 C 12.140625 -12.6875 12.769531 -11.03125 14.03125 -9.75 C 15.300781 -8.46875 16.96875 -7.828125 19.03125 -7.828125 C 21.03125 -7.828125 22.671875 -8.476562 23.953125 -9.78125 C 25.234375 -11.082031 25.875 -12.726562 25.875 -14.71875 C 25.875 -16.75 25.210938 -18.414062 23.890625 -19.71875 C 22.566406 -21.03125 20.945312 -21.6875 19.03125 -21.6875 C 17.082031 -21.6875 15.445312 -21.03125 14.125 -19.71875 Z M 14.125 -19.71875 "/></g></g></g><g fill="#000000" fill-opacity="1"><g transform="translate(219.870295, 201.570968)"><g><path d="M 4.421875 -45.953125 C 5.617188 -47.140625 7.039062 -47.734375 8.6875 -47.734375 C 10.332031 -47.734375 11.75 -47.140625 12.9375 -45.953125 C 14.125 -44.765625 14.71875 -43.34375 14.71875 -41.6875 C 14.71875 -40.039062 14.125 -38.625 12.9375 -37.4375 C 11.75 -36.25 10.332031 -35.65625 8.6875 -35.65625 C 7.039062 -35.65625 5.617188 -36.25 4.421875 -37.4375 C 3.234375 -38.625 2.640625 -40.039062 2.640625 -41.6875 C 2.640625 -43.34375 3.234375 -44.765625 4.421875 -45.953125 Z M 3.453125 -29.5 L 3.453125 0 L 13.625 0 L 13.625 -29.5 Z M 3.453125 -29.5 "/></g></g></g><g fill="#000000" fill-opacity="1"><g transform="translate(237.236463, 201.570968)"><g><path d="M 2.125 7.25 L 10.46875 3.15625 C 12 5.6875 14.664062 6.953125 18.46875 6.953125 C 20.226562 6.953125 21.863281 6.382812 23.375 5.25 C 24.894531 4.125 25.65625 2.394531 25.65625 0.0625 L 25.65625 -2.125 C 23.851562 -0.132812 20.628906 0.859375 15.984375 0.859375 C 11.734375 0.859375 8.226562 -0.644531 5.46875 -3.65625 C 2.707031 -6.664062 1.328125 -10.351562 1.328125 -14.71875 C 1.328125 -19.09375 2.707031 -22.796875 5.46875 -25.828125 C 8.226562 -28.859375 11.734375 -30.375 15.984375 -30.375 C 19.785156 -30.375 22.953125 -29.203125 25.484375 -26.859375 L 25.65625 -26.859375 L 25.65625 -29.5 L 35.828125 -29.5 L 35.828125 0.8125 C 35.828125 5.601562 34.234375 9.300781 31.046875 11.90625 C 27.867188 14.507812 23.675781 15.8125 18.46875 15.8125 C 10.03125 15.8125 4.582031 12.957031 2.125 7.25 Z M 14.125 -19.71875 C 12.800781 -18.414062 12.140625 -16.75 12.140625 -14.71875 C 12.140625 -12.6875 12.769531 -11.03125 14.03125 -9.75 C 15.300781 -8.46875 16.96875 -7.828125 19.03125 -7.828125 C 21.03125 -7.828125 22.671875 -8.476562 23.953125 -9.78125 C 25.234375 -11.082031 25.875 -12.726562 25.875 -14.71875 C 25.875 -16.75 25.210938 -18.414062 23.890625 -19.71875 C 22.566406 -21.03125 20.945312 -21.6875 19.03125 -21.6875 C 17.082031 -21.6875 15.445312 -21.03125 14.125 -19.71875 Z M 14.125 -19.71875 "/></g></g></g><g fill="#000000" fill-opacity="1"><g transform="translate(276.511611, 201.570968)"><g><path d="M 13.0625 -29.5 L 13.0625 -15.46875 C 13.0625 -12.550781 13.5 -10.476562 14.375 -9.25 C 15.257812 -8.03125 16.753906 -7.421875 18.859375 -7.421875 C 20.972656 -7.421875 22.46875 -8.03125 23.34375 -9.25 C 24.226562 -10.476562 24.671875 -12.550781 24.671875 -15.46875 L 24.671875 -29.5 L 34.859375 -29.5 L 34.859375 -13 C 34.859375 -8.09375 33.582031 -4.554688 31.03125 -2.390625 C 28.476562 -0.222656 24.421875 0.859375 18.859375 0.859375 C 13.304688 0.859375 9.253906 -0.222656 6.703125 -2.390625 C 4.148438 -4.554688 2.875 -8.09375 2.875 -13 L 2.875 -29.5 Z M 13.0625 -29.5 "/></g></g></g><g fill="#000000" fill-opacity="1"><g transform="translate(314.23415, 201.570968)"><g><path d="M 33.296875 -13.34375 L 11.90625 -13.34375 C 11.90625 -11.269531 12.578125 -9.734375 13.921875 -8.734375 C 15.265625 -7.742188 16.722656 -7.25 18.296875 -7.25 C 19.941406 -7.25 21.242188 -7.46875 22.203125 -7.90625 C 23.160156 -8.34375 24.253906 -9.21875 25.484375 -10.53125 L 32.84375 -6.84375 C 29.769531 -1.707031 24.671875 0.859375 17.546875 0.859375 C 13.097656 0.859375 9.28125 -0.660156 6.09375 -3.703125 C 2.914062 -6.753906 1.328125 -10.425781 1.328125 -14.71875 C 1.328125 -19.019531 2.914062 -22.703125 6.09375 -25.765625 C 9.28125 -28.835938 13.097656 -30.375 17.546875 -30.375 C 22.222656 -30.375 26.023438 -29.019531 28.953125 -26.3125 C 31.890625 -23.613281 33.359375 -19.75 33.359375 -14.71875 C 33.359375 -14.03125 33.335938 -13.570312 33.296875 -13.34375 Z M 12.1875 -18.984375 L 23.40625 -18.984375 C 23.175781 -20.515625 22.570312 -21.691406 21.59375 -22.515625 C 20.613281 -23.335938 19.359375 -23.75 17.828125 -23.75 C 16.140625 -23.75 14.796875 -23.304688 13.796875 -22.421875 C 12.804688 -21.546875 12.269531 -20.398438 12.1875 -18.984375 Z M 12.1875 -18.984375 "/></g></g></g><g fill="#ffffff" fill-opacity="1"><g transform="translate(68.267973, 202.970963)"><g><path d="M 3.515625 -48.265625 L 20.765625 -48.265625 C 25.410156 -48.265625 29.191406 -47.023438 32.109375 -44.546875 C 35.035156 -42.066406 36.5 -38.53125 36.5 -33.9375 C 36.5 -30.382812 35.613281 -27.40625 33.84375 -25 C 32.070312 -22.601562 29.664062 -20.921875 26.625 -19.953125 L 43.234375 0 L 29.25 0 L 14.515625 -19.078125 L 14.515625 0 L 3.515625 0 Z M 14.515625 -26.84375 L 15.796875 -26.84375 C 16.804688 -26.84375 17.660156 -26.863281 18.359375 -26.90625 C 19.066406 -26.945312 19.867188 -27.082031 20.765625 -27.3125 C 21.660156 -27.550781 22.378906 -27.882812 22.921875 -28.3125 C 23.472656 -28.738281 23.941406 -29.363281 24.328125 -30.1875 C 24.722656 -31.007812 24.921875 -32.003906 24.921875 -33.171875 C 24.921875 -34.335938 24.722656 -35.328125 24.328125 -36.140625 C 23.941406 -36.960938 23.472656 -37.585938 22.921875 -38.015625 C 22.378906 -38.453125 21.660156 -38.785156 20.765625 -39.015625 C 19.867188 -39.253906 19.066406 -39.390625 18.359375 -39.421875 C 17.660156 -39.460938 16.804688 -39.484375 15.796875 -39.484375 L 14.515625 -39.484375 Z M 14.515625 -26.84375 "/></g></g></g><g fill="#000000" fill-opacity="1"><g transform="translate(74.656361, 221.330112)"><g/></g></g><g fill="#000000" fill-opacity="1"><g transform="translate(77.697136, 221.330112)"><g/></g></g><g fill="#000000" fill-opacity="1"><g transform="translate(80.737911, 221.330112)"><g/></g></g><g fill="#000000" fill-opacity="1"><g transform="translate(83.778687, 221.330112)"><g/></g></g><g fill="#000000" fill-opacity="1"><g transform="translate(86.819462, 221.330112)"><g/></g></g><g fill="#000000" fill-opacity="1"><g transform="translate(89.860237, 221.330112)"><g/></g></g><g fill="#000000" fill-opacity="1"><g transform="translate(92.901012, 221.330112)"><g/></g></g><g fill="#000000" fill-opacity="1"><g transform="translate(95.941787, 221.330112)"><g/></g></g><g fill="#000000" fill-opacity="1"><g transform="translate(98.982562, 221.330112)"><g/></g></g><g fill="#000000" fill-opacity="1"><g transform="translate(102.023337, 221.330112)"><g/></g></g><g fill="#000000" fill-opacity="1"><g transform="translate(105.064112, 221.330112)"><g/></g></g><g fill="#000000" fill-opacity="1"><g transform="translate(108.104888, 221.330112)"><g/></g></g><g fill="#000000" fill-opacity="1"><g transform="translate(111.145663, 221.330112)"><g/></g></g><g fill="#000000" fill-opacity="1"><g transform="translate(114.186438, 221.330112)"><g/></g></g><g fill="#000000" fill-opacity="1"><g transform="translate(117.227213, 221.330112)"><g/></g></g><g fill="#000000" fill-opacity="1"><g transform="translate(120.267988, 221.330112)"><g/></g></g><g fill="#000000" fill-opacity="1"><g transform="translate(123.308763, 221.330112)"><g/></g></g><g fill="#000000" fill-opacity="1"><g transform="translate(126.347764, 221.330112)"><g><path d="M 1.171875 -7.765625 L 4.3125 -7.765625 C 5.445312 -7.765625 6.394531 -7.390625 7.15625 -6.640625 C 7.925781 -5.898438 8.3125 -4.976562 8.3125 -3.875 C 8.3125 -2.78125 7.925781 -1.859375 7.15625 -1.109375 C 6.382812 -0.367188 5.425781 0 4.28125 0 L 1.171875 0 Z M 2.0625 -6.90625 L 2.0625 -0.84375 L 4.328125 -0.84375 C 5.203125 -0.84375 5.929688 -1.128906 6.515625 -1.703125 C 7.109375 -2.285156 7.40625 -3.007812 7.40625 -3.875 C 7.40625 -4.738281 7.101562 -5.457031 6.5 -6.03125 C 5.90625 -6.613281 5.171875 -6.90625 4.296875 -6.90625 Z M 2.0625 -6.90625 "/></g></g></g><g fill="#000000" fill-opacity="1"><g transform="translate(135.103867, 221.330112)"><g><path d="M 5.46875 -9.8125 L 4.09375 -8.734375 L 3.265625 -8.734375 L 4.59375 -10.234375 Z M 6.453125 -6.90625 L 2.0625 -6.90625 L 2.0625 -4.359375 L 5.984375 -4.359375 L 5.984375 -3.5 L 2.0625 -3.5 L 2.0625 -0.84375 L 6.59375 -0.84375 L 6.59375 0 L 1.171875 0 L 1.171875 -7.765625 L 6.453125 -7.765625 Z M 6.453125 -6.90625 "/></g></g></g><g fill="#000000" fill-opacity="1"><g transform="translate(142.328487, 221.330112)"><g><path d="M 4.140625 0 L 3.21875 0 L 0.0625 -7.765625 L 1.015625 -7.765625 L 3.6875 -1.03125 L 6.375 -7.765625 L 7.3125 -7.765625 Z M 4.140625 0 "/></g></g></g><g fill="#000000" fill-opacity="1"><g transform="translate(149.708473, 221.330112)"><g><path d="M 6.453125 -6.90625 L 2.0625 -6.90625 L 2.0625 -4.359375 L 5.984375 -4.359375 L 5.984375 -3.5 L 2.0625 -3.5 L 2.0625 -0.84375 L 6.59375 -0.84375 L 6.59375 0 L 1.171875 0 L 1.171875 -7.765625 L 6.453125 -7.765625 Z M 6.453125 -6.90625 "/></g></g></g><g fill="#000000" fill-opacity="1"><g transform="translate(156.933093, 221.330112)"><g><path d="M 2.0625 -0.84375 L 5.46875 -0.84375 L 5.46875 0 L 1.171875 0 L 1.171875 -7.765625 L 2.0625 -7.765625 Z M 2.0625 -0.84375 "/></g></g></g><g fill="#000000" fill-opacity="1"><g transform="translate(162.670622, 221.330112)"><g><path d="M 4.515625 -7.78125 C 5.648438 -7.78125 6.609375 -7.40625 7.390625 -6.65625 C 8.179688 -5.90625 8.578125 -4.976562 8.578125 -3.875 C 8.578125 -2.78125 8.179688 -1.851562 7.390625 -1.09375 C 6.609375 -0.332031 5.648438 0.046875 4.515625 0.046875 C 3.378906 0.046875 2.414062 -0.332031 1.625 -1.09375 C 0.832031 -1.851562 0.4375 -2.78125 0.4375 -3.875 C 0.4375 -4.976562 0.832031 -5.90625 1.625 -6.65625 C 2.414062 -7.40625 3.378906 -7.78125 4.515625 -7.78125 Z M 4.515625 -6.9375 C 3.640625 -6.9375 2.890625 -6.640625 2.265625 -6.046875 C 1.648438 -5.453125 1.34375 -4.726562 1.34375 -3.875 C 1.34375 -3.03125 1.648438 -2.304688 2.265625 -1.703125 C 2.890625 -1.109375 3.640625 -0.8125 4.515625 -0.8125 C 5.378906 -0.8125 6.117188 -1.109375 6.734375 -1.703125 C 7.359375 -2.304688 7.671875 -3.03125 7.671875 -3.875 C 7.671875 -4.726562 7.359375 -5.453125 6.734375 -6.046875 C 6.117188 -6.640625 5.378906 -6.9375 4.515625 -6.9375 Z M 4.515625 -6.9375 "/></g></g></g><g fill="#000000" fill-opacity="1"><g transform="translate(171.693075, 221.330112)"><g><path d="M 1.171875 -7.765625 L 4.09375 -7.765625 C 5.050781 -7.765625 5.796875 -7.535156 6.328125 -7.078125 C 6.859375 -6.628906 7.125 -5.988281 7.125 -5.15625 C 7.125 -4.300781 6.859375 -3.632812 6.328125 -3.15625 C 5.796875 -2.6875 5.050781 -2.453125 4.09375 -2.453125 L 2.0625 -2.453125 L 2.0625 0 L 1.171875 0 Z M 2.0625 -6.90625 L 2.0625 -3.3125 L 4.0625 -3.3125 C 4.769531 -3.3125 5.3125 -3.460938 5.6875 -3.765625 C 6.070312 -4.078125 6.265625 -4.535156 6.265625 -5.140625 C 6.265625 -5.722656 6.070312 -6.160156 5.6875 -6.453125 C 5.3125 -6.753906 4.769531 -6.90625 4.0625 -6.90625 Z M 2.0625 -6.90625 "/></g></g></g><g fill="#000000" fill-opacity="1"><g transform="translate(179.117452, 221.330112)"><g><path d="M 1.171875 -7.765625 L 4.09375 -7.765625 C 5.050781 -7.765625 5.796875 -7.535156 6.328125 -7.078125 C 6.859375 -6.628906 7.125 -5.988281 7.125 -5.15625 C 7.125 -4.300781 6.859375 -3.632812 6.328125 -3.15625 C 5.796875 -2.6875 5.050781 -2.453125 4.09375 -2.453125 L 2.0625 -2.453125 L 2.0625 0 L 1.171875 0 Z M 2.0625 -6.90625 L 2.0625 -3.3125 L 4.0625 -3.3125 C 4.769531 -3.3125 5.3125 -3.460938 5.6875 -3.765625 C 6.070312 -4.078125 6.265625 -4.535156 6.265625 -5.140625 C 6.265625 -5.722656 6.070312 -6.160156 5.6875 -6.453125 C 5.3125 -6.753906 4.769531 -6.90625 4.0625 -6.90625 Z M 2.0625 -6.90625 "/></g></g></g><g fill="#000000" fill-opacity="1"><g transform="translate(186.541829, 221.330112)"><g><path d="M 6.453125 -6.90625 L 2.0625 -6.90625 L 2.0625 -4.359375 L 5.984375 -4.359375 L 5.984375 -3.5 L 2.0625 -3.5 L 2.0625 -0.84375 L 6.59375 -0.84375 L 6.59375 0 L 1.171875 0 L 1.171875 -7.765625 L 6.453125 -7.765625 Z M 6.453125 -6.90625 "/></g></g></g><g fill="#000000" fill-opacity="1"><g transform="translate(193.766449, 221.330112)"><g><path d="M 7.515625 -7.765625 L 7.515625 -3.1875 C 7.515625 -2.175781 7.226562 -1.382812 6.65625 -0.8125 C 6.082031 -0.238281 5.285156 0.046875 4.265625 0.046875 C 3.242188 0.046875 2.441406 -0.238281 1.859375 -0.8125 C 1.285156 -1.382812 1 -2.175781 1 -3.1875 L 1 -7.765625 L 1.890625 -7.765625 L 1.890625 -3.1875 C 1.890625 -2.445312 2.097656 -1.863281 2.515625 -1.4375 C 2.941406 -1.019531 3.523438 -0.8125 4.265625 -0.8125 C 5.003906 -0.8125 5.582031 -1.019531 6 -1.4375 C 6.425781 -1.851562 6.640625 -2.4375 6.640625 -3.1875 L 6.640625 -7.765625 Z M 7.515625 -7.765625 "/></g></g></g><g fill="#000000" fill-opacity="1"><g transform="translate(202.289505, 221.330112)"><g><path d="M 6.25 0 L 4.640625 -2.46875 C 4.421875 -2.457031 4.25 -2.453125 4.125 -2.453125 L 2.0625 -2.453125 L 2.0625 0 L 1.171875 0 L 1.171875 -7.765625 L 4.125 -7.765625 C 5.09375 -7.765625 5.84375 -7.535156 6.375 -7.078125 C 6.914062 -6.628906 7.1875 -5.988281 7.1875 -5.15625 C 7.1875 -4.519531 7.035156 -3.988281 6.734375 -3.5625 C 6.441406 -3.132812 6.015625 -2.828125 5.453125 -2.640625 L 7.265625 0 Z M 2.0625 -3.3125 L 4.125 -3.3125 C 4.832031 -3.3125 5.375 -3.460938 5.75 -3.765625 C 6.132812 -4.078125 6.328125 -4.535156 6.328125 -5.140625 C 6.328125 -5.722656 6.132812 -6.160156 5.75 -6.453125 C 5.375 -6.753906 4.832031 -6.90625 4.125 -6.90625 L 2.0625 -6.90625 Z M 2.0625 -3.3125 "/></g></g></g><g fill="#000000" fill-opacity="1"><g transform="translate(210.313163, 221.330112)"><g/></g></g><g fill="#000000" fill-opacity="1"><g transform="translate(213.353938, 221.330112)"><g><path d="M 8.703125 0 L 7.78125 0 L 5.6875 -6.546875 L 3.578125 0 L 2.65625 0 L 0.0625 -7.765625 L 1.015625 -7.765625 L 3.15625 -1.03125 L 5.265625 -7.75 L 6.140625 -7.765625 L 8.28125 -1.03125 L 10.390625 -7.765625 L 11.296875 -7.765625 Z M 8.703125 0 "/></g></g></g><g fill="#000000" fill-opacity="1"><g transform="translate(224.64033, 221.330112)"><g><path d="M 6.453125 -6.90625 L 2.0625 -6.90625 L 2.0625 -4.359375 L 5.984375 -4.359375 L 5.984375 -3.5 L 2.0625 -3.5 L 2.0625 -0.84375 L 6.59375 -0.84375 L 6.59375 0 L 1.171875 0 L 1.171875 -7.765625 L 6.453125 -7.765625 Z M 6.453125 -6.90625 "/></g></g></g><g fill="#000000" fill-opacity="1"><g transform="translate(231.86495, 221.330112)"><g><path d="M 1.171875 -7.765625 L 4.453125 -7.765625 C 5.234375 -7.765625 5.84375 -7.59375 6.28125 -7.25 C 6.726562 -6.90625 6.953125 -6.429688 6.953125 -5.828125 C 6.953125 -5.367188 6.828125 -4.984375 6.578125 -4.671875 C 6.328125 -4.367188 5.976562 -4.171875 5.53125 -4.078125 C 6.09375 -3.992188 6.523438 -3.773438 6.828125 -3.421875 C 7.140625 -3.078125 7.296875 -2.640625 7.296875 -2.109375 C 7.296875 -1.453125 7.046875 -0.9375 6.546875 -0.5625 C 6.054688 -0.1875 5.375 0 4.5 0 L 1.171875 0 Z M 2.0625 -6.90625 L 2.0625 -4.421875 L 4.40625 -4.421875 C 4.925781 -4.421875 5.332031 -4.523438 5.625 -4.734375 C 5.914062 -4.953125 6.0625 -5.269531 6.0625 -5.6875 C 6.0625 -6.070312 5.914062 -6.367188 5.625 -6.578125 C 5.332031 -6.796875 4.925781 -6.90625 4.40625 -6.90625 Z M 2.0625 -3.578125 L 2.0625 -0.84375 L 4.40625 -0.84375 C 5.039062 -0.84375 5.53125 -0.960938 5.875 -1.203125 C 6.226562 -1.441406 6.40625 -1.785156 6.40625 -2.234375 C 6.40625 -2.648438 6.226562 -2.976562 5.875 -3.21875 C 5.519531 -3.457031 5.03125 -3.578125 4.40625 -3.578125 Z M 2.0625 -3.578125 "/></g></g></g></svg>