<svg xmlns="http://www.w3.org/2000/svg" xmlns:xlink="http://www.w3.org/1999/xlink" width="500" zoomAndPan="magnify" viewBox="0 0 375 374.999991" height="500" preserveAspectRatio="xMidYMid meet" version="1.0"><defs><clipPath id="id1"><path d="M 124.5 124.5 L 274.5 124.5 L 274.5 274.5 L 124.5 274.5 Z M 124.5 124.5 " clip-rule="nonzero"/></clipPath></defs><g clip-path="url(#id1)"><path fill="#d4a373" d="M 236.792969 124.558594 L 162.089844 124.558594 C 141.390625 124.558594 124.5 141.449219 124.5 162.148438 L 124.5 236.96875 C 124.5 257.550781 141.390625 274.441406 162.089844 274.441406 L 236.910156 274.441406 C 257.609375 274.441406 274.5 257.550781 274.5 236.851562 L 274.5 162.148438 C 274.382812 141.449219 257.488281 124.558594 236.792969 124.558594 Z M 174.460938 245.890625 L 153.046875 245.890625 L 153.046875 184.035156 L 174.460938 184.035156 Z M 163.636719 174.519531 C 157.570312 174.519531 152.691406 169.644531 152.691406 163.574219 C 152.691406 157.507812 157.570312 152.632812 163.636719 152.632812 C 169.703125 152.632812 174.578125 157.507812 174.578125 163.574219 C 174.460938 169.644531 169.582031 174.519531 163.636719 174.519531 Z M 245.832031 245.890625 L 227.988281 245.890625 L 227.988281 215.914062 C 227.988281 208.660156 227.039062 199.382812 217.164062 199.382812 C 207.054688 199.382812 205.386719 207.230469 205.386719 215.441406 L 205.386719 245.890625 L 187.546875 245.890625 L 187.546875 184.035156 L 204.199219 184.035156 L 204.199219 192.363281 L 204.675781 192.363281 C 207.292969 187.605469 213.359375 183.917969 222.875 183.917969 C 242.5 183.917969 245.953125 195.21875 245.953125 211.988281 L 245.953125 245.890625 Z M 245.832031 245.890625 " fill-opacity="1" fill-rule="nonzero"/></g></svg>